HIERARCHY
ROOT Pelvis
{
	OFFSET 0.000000 0.000000 0.000000
	CHANNELS 6 Xposition Yposition Zposition Xrotation Yrotation Zrotation
	JOINT LeftUpLeg_virtual
	{
		OFFSET 0.000000 0.000000 0.000000
		CHANNELS 3 Xrotation Yrotation Zrotation
		JOINT LeftUpLeg
		{
			OFFSET 18.735201 -5.666702 -4.541200
			CHANNELS 3 Xrotation Yrotation Zrotation
			JOINT LeftLeg
			{
				OFFSET -0.021200 -31.938179 0.493100
				CHANNELS 3 Xrotation Yrotation Zrotation
				JOINT LeftFoot
				{
					OFFSET 0.021200 -31.938179 -4.336299
					CHANNELS 3 Xrotation Yrotation Zrotation
					JOINT LeftToeBase
					{
						OFFSET 0.943001 -26.722000 15.023500
						CHANNELS 3 Xrotation Yrotation Zrotation
						End Site
						{
							OFFSET 0 0 0
						}
					}
				}
			}
		}
	}
	JOINT RightUpLeg_virtual
	{
		OFFSET 0.000000 0.000000 0.000000
		CHANNELS 3 Xrotation Yrotation Zrotation
		JOINT RightUpLeg
		{
			OFFSET -18.735201 -5.666702 -4.541200
			CHANNELS 3 Xrotation Yrotation Zrotation
			JOINT RightLeg
			{
				OFFSET 0.018946 -31.938133 0.493100
				CHANNELS 3 Xrotation Yrotation Zrotation
				JOINT RightFoot
				{
					OFFSET -0.018946 -31.938126 -4.336299
					CHANNELS 3 Xrotation Yrotation Zrotation
					JOINT RightToeBase
					{
						OFFSET -0.943001 -26.722004 15.023500
						CHANNELS 3 Xrotation Yrotation Zrotation
						End Site
						{
							OFFSET 0 0 0
						}
					}
				}
			}
		}
	}
	JOINT Hips_virtual
	{
		OFFSET 0.000000 0.000000 0.000000
		CHANNELS 3 Xrotation Yrotation Zrotation
		JOINT Hips
		{
			OFFSET -0.000000 -0.000000 -0.000000
			CHANNELS 3 Xrotation Yrotation Zrotation
			JOINT Spine
			{
				OFFSET 0.000000 10.199997 -0.299500
				CHANNELS 3 Xrotation Yrotation Zrotation
				JOINT Spine1
				{
					OFFSET 0.000000 11.900002 -1.516600
					CHANNELS 3 Xrotation Yrotation Zrotation
					JOINT Spine2
					{
						OFFSET 0.000000 13.600006 -2.842500
						CHANNELS 3 Xrotation Yrotation Zrotation
						JOINT Neck_virtual
						{
							OFFSET 0.000000 0.000000 0.000000
							CHANNELS 3 Xrotation Yrotation Zrotation
							JOINT Neck
							{
								OFFSET 0.000000 9.624100 -2.890100
								CHANNELS 3 Xrotation Yrotation Zrotation
								JOINT Head
								{
									OFFSET 0.000000 14.068802 -1.351900
									CHANNELS 3 Xrotation Yrotation Zrotation
									End Site
									{
										OFFSET 0 0 0
									}
								}
							}
						}
						JOINT LeftShoulder_virtual
						{
							OFFSET 0.000000 0.000000 0.000000
							CHANNELS 3 Xrotation Yrotation Zrotation
							JOINT LeftShoulder
							{
								OFFSET 15.263000 10.923401 -0.547700
								CHANNELS 3 Xrotation Yrotation Zrotation
								JOINT LeftArm
								{
									OFFSET 25.438599 -2.830597 -13.032500
									CHANNELS 3 Xrotation Yrotation Zrotation
									JOINT LeftForeArm
									{
										OFFSET 29.960503 0.000000 0.000000
										CHANNELS 3 Xrotation Yrotation Zrotation
										JOINT LeftHand
										{
											OFFSET 27.849251 0.000000 0.000000
											CHANNELS 3 Xrotation Yrotation Zrotation
											End Site
											{
												OFFSET 0 0 0
											}
										}
									}
								}
							}
						}
						JOINT RightShoulder_virtual
						{
							OFFSET 0.000000 0.000000 0.000000
							CHANNELS 3 Xrotation Yrotation Zrotation
							JOINT RightShoulder
							{
								OFFSET -15.263000 10.923401 -0.547700
								CHANNELS 3 Xrotation Yrotation Zrotation
								JOINT RightArm
								{
									OFFSET -25.438599 -2.830597 -13.032500
									CHANNELS 3 Xrotation Yrotation Zrotation
									JOINT RightForeArm
									{
										OFFSET -29.960503 0.000000 0.000000
										CHANNELS 3 Xrotation Yrotation Zrotation
										JOINT RightHand
										{
											OFFSET -27.849251 0.000000 0.000000
											CHANNELS 3 Xrotation Yrotation Zrotation
											End Site
											{
												OFFSET 0 0 0
											}
										}
									}
								}
							}
						}
					}
				}
			}
		}
	}
}
MOTION
Frames: 7
Frame Time: 0.03333333
0.481954 40.064541 -3.138058 0.000000 0.000000 0.000000 43.214375 -7.085050 -3.838478 19.872878 15.985709 4.475899 28.231667 3.272479 -0.320501 -19.775645 3.589743 -3.821326 0.000000 0.000000 0.000000 36.041112 3.347398 2.850577 19.754473 -9.300955 -9.021579 33.575902 0.724807 -2.759356 -16.175525 -1.765873 7.075221 0.000000 0.000000 0.000000 17.751563 2.841798 -0.281853 64.317153 2.808981 -2.557614 4.719880 -0.596137 1.041255 1.605382 -0.209017 0.193137 0.000000 0.000000 0.000000 -1.619332 0.074980 0.552604 -2.237646 -0.320989 0.866391 0.000000 0.000000 0.000000 3.414557 0.965376 0.412282 1.818025 -6.017853 2.608074 -25.432824 -18.229380 -40.059107 -1.843259 -56.132489 0.261947 0.000000 0.000000 0.000000 2.014665 -0.259281 0.857367 0.486409 7.264813 7.086793 -17.908742 27.867296 30.505674 1.530792 64.956957 -2.903378 0.000000 0.000000 0.000000 
1.381792 41.429241 -2.441029 0.000000 0.000000 0.000000 45.062859 -6.732770 -4.147447 23.083710 16.076638 3.618326 23.995962 3.188051 -0.375579 -23.305002 3.646101 -4.096966 0.000000 0.000000 0.000000 38.041305 4.977544 3.210377 22.999776 -8.924504 -7.739307 30.484306 0.364491 -3.298951 -18.738008 -2.023423 5.757595 0.000000 0.000000 0.000000 17.088945 3.390387 -1.254823 67.189896 3.595362 -2.731841 3.955535 -1.041449 0.433592 1.202059 -0.152876 0.225040 0.000000 0.000000 0.000000 -1.172618 -0.148599 0.534501 -2.007746 -0.334256 1.000548 0.000000 0.000000 0.000000 2.980753 0.917650 0.356758 2.329043 -5.246034 2.537031 -25.869891 -18.067230 -40.214955 -0.815639 -55.650366 0.624059 0.000000 0.000000 0.000000 2.197641 -0.230939 1.228694 1.159720 7.911418 8.734964 -16.567447 30.557505 28.848677 1.093887 67.993638 -2.337326 0.000000 0.000000 0.000000 
3.154343 41.622505 -3.903278 0.000000 0.000000 0.000000 45.867978 -7.558804 -4.386043 24.685975 15.734111 2.674915 18.638381 3.084511 -0.452136 -27.371491 3.765095 -4.381733 0.000000 0.000000 0.000000 39.005571 6.018624 2.942094 25.107246 -8.566473 -7.345698 27.509222 0.314440 -2.950084 -21.085832 -2.439142 6.118284 0.000000 0.000000 0.000000 17.705471 3.927836 -0.164206 64.619375 4.378512 1.241726 4.965661 -1.290035 0.192959 0.853338 -0.284153 0.680818 0.000000 0.000000 0.000000 -1.034654 -0.269378 0.529329 -2.140645 -0.528580 0.833081 0.000000 0.000000 0.000000 2.731503 1.183798 0.587226 2.136359 -7.277584 2.725997 -27.124455 -21.105285 -39.736623 -0.420779 -57.079597 0.885871 0.000000 0.000000 0.000000 2.122468 -0.219902 1.405442 1.373906 7.579085 8.661514 -17.320721 31.980527 26.754725 0.498765 65.397982 -3.347504 0.000000 0.000000 0.000000 
1.937483 41.598183 -5.535740 0.000000 0.000000 0.000000 47.580976 -9.906163 -2.610352 26.526558 15.312797 3.441452 16.553196 2.913270 0.331607 -29.082812 3.264890 -3.444767 0.000000 0.000000 0.000000 39.346070 4.588416 2.838932 25.567556 -9.078671 -7.796077 23.262386 0.506216 -2.976294 -24.466050 -2.510724 5.979923 0.000000 0.000000 0.000000 18.090866 4.221368 -0.575382 69.402153 4.016283 2.541494 3.524814 -1.840419 0.377087 0.898618 -0.151821 0.230070 0.000000 0.000000 0.000000 -1.603662 -0.184152 0.491745 -2.165035 -0.433587 0.782426 0.000000 0.000000 0.000000 3.007955 0.828714 0.415470 2.049462 -6.359983 2.882127 -26.854808 -21.807636 -39.987582 0.343503 -58.300849 0.848108 0.000000 0.000000 0.000000 2.061991 -0.182212 1.443609 1.347623 7.228722 9.219184 -18.518403 32.311463 26.246972 0.759067 68.055390 -3.457156 0.000000 0.000000 0.000000 
2.516290 41.204472 -2.677813 0.000000 0.000000 0.000000 47.848303 -7.494346 -4.931774 27.038793 15.951176 1.804714 14.830270 3.550054 0.442262 -30.216832 3.840953 -3.047186 0.000000 0.000000 0.000000 40.556506 4.952887 3.984886 27.111811 -8.959303 -6.345844 23.479233 0.481214 -3.383761 -24.219251 -2.256223 5.256773 0.000000 0.000000 0.000000 18.840332 4.927744 -1.304108 65.672870 1.224665 2.871231 5.124506 -1.459775 -0.017677 0.952012 -0.175324 0.492435 0.000000 0.000000 0.000000 -1.176896 -0.083699 0.514648 -1.989752 -0.347102 0.811251 0.000000 0.000000 0.000000 3.011774 0.772984 0.539097 2.070706 -6.744510 3.110193 -25.563259 -23.946440 -38.297888 1.981275 -59.234153 1.897694 0.000000 0.000000 0.000000 2.151363 -0.024960 1.746969 1.942325 8.687739 9.150311 -18.221042 34.113776 26.889942 0.770541 70.295658 -2.623686 0.000000 0.000000 0.000000 
1.569508 41.621384 -3.985249 0.000000 0.000000 0.000000 49.434116 -8.260281 -4.940394 29.879926 15.563110 0.911651 13.772547 2.778686 0.708295 -30.978750 3.057871 -3.062297 0.000000 0.000000 0.000000 41.993779 5.460589 3.942365 28.694940 -8.954351 -6.155428 23.921756 0.570125 -3.242411 -23.912019 -2.224163 5.533123 0.000000 0.000000 0.000000 17.907735 1.690275 -0.743735 67.841892 1.012377 0.421060 3.480475 -2.082741 -0.290177 1.147994 0.057265 0.351600 0.000000 0.000000 0.000000 -1.506582 0.006551 0.629147 -1.620210 -0.460081 0.857765 0.000000 0.000000 0.000000 2.561609 0.832634 0.426381 2.278132 -7.655625 3.804383 -23.625269 -23.779635 -37.897940 4.053588 -58.144314 2.569544 0.000000 0.000000 0.000000 2.686504 0.109111 2.002962 2.645746 9.161558 9.460714 -17.658916 38.256118 25.870947 4.345309 69.811364 -5.425802 0.000000 0.000000 0.000000 
0.543481 41.423904 -3.911442 0.000000 0.000000 0.000000 49.642450 -5.540455 -4.713190 30.346838 16.478446 2.190527 12.447907 3.178258 1.259675 -31.834204 3.195747 -2.169695 0.000000 0.000000 0.000000 43.228793 5.557489 4.654681 30.965175 -8.779081 -5.030426 23.591724 0.736034 -3.205651 -24.203849 -2.100499 5.633554 0.000000 0.000000 0.000000 19.607923 3.108518 0.063316 66.557871 2.669229 2.840623 1.748512 -1.619504 -0.585938 0.729839 -0.504823 0.124984 0.000000 0.000000 0.000000 -1.558720 0.025840 0.370513 -1.658186 -0.488638 0.633120 0.000000 0.000000 0.000000 1.993140 0.949452 0.454645 1.737532 -8.695457 4.042376 -26.448355 -24.348786 -39.556197 2.302555 -60.525503 0.431416 0.000000 0.000000 0.000000 2.661379 0.072781 2.008053 2.954577 8.466948 8.932908 -18.190080 37.319477 25.084532 2.804042 67.231437 -4.042671 0.000000 0.000000 0.000000 
